<svg t="1771913002151" class="icon" viewBox="0 0 1024 1024" version="1.1" xmlns="http://www.w3.org/2000/svg" p-id="15395" width="200" height="200">
  <path d="M396.8 550.4a76.8 76.8 0 0 1 76.8 76.8v243.2a76.8 76.8 0 0 1-76.8 76.8H153.6a76.8 76.8 0 0 1-76.8-76.8V627.2a76.8 76.8 0 0 1 76.8-76.8h243.2z m473.6 0a76.8 76.8 0 0 1 76.8 76.8v243.2a76.8 76.8 0 0 1-76.8 76.8H627.2a76.8 76.8 0 0 1-76.8-76.8V627.2a76.8 76.8 0 0 1 76.8-76.8h243.2zM396.8 76.8a76.8 76.8 0 0 1 76.8 76.8v243.2a76.8 76.8 0 0 1-76.8 76.8H153.6a76.8 76.8 0 0 1-76.8-76.8V153.6a76.8 76.8 0 0 1 76.8-76.8h243.2z" fill="#6B57FE" p-id="15396"></path>
  <path d="M809.51 59.52L981.478 231.5a76.8 76.8 0 0 1 0 108.609L809.51 512.077a76.8 76.8 0 0 1-108.62 0L528.922 340.109a76.8 76.8 0 0 1 0-108.608L700.89 59.52a76.8 76.8 0 0 1 108.62 0z" fill="#FFBA00" p-id="15397"></path>
</svg>